{"title":"48 Hours - Death On The Hudson","uid":15959918,"size":341402230,"categoryP":"video","categoryS":"tv_shows","magnet":"?xt=urn:btih:a9da0b14ffe2e2400641f5a93c0a5c8b638ac040&amp;dn=48+Hours+-+Death+On+The+Hudson&amp;tr=udp%3A%2F%2Ftracker.leechers-paradise.org%3A6969&amp;tr=udp%3A%2F%2Fzer0day.ch%3A1337&amp;tr=udp%3A%2F%2Fopen.demonii.com%3A1337&amp;tr=udp%3A%2F%2Ftracker.coppersurfer.tk%3A6969&amp;tr=udp%3A%2F%2Fexodus.desync.com%3A6969","seeders":12,"leechers":6,"uploader":"Bullrout","files":1,"time":1475654055,"description":"48 Hours - Death On The Hudson\r\n\r\nCan new evidence prove there was no murder in the case against a woman charged with killing her fiance during a kayaking trip?\r\n\r\nComplete name : 48 Hours - Death On The Hudson.mp4\r\nFormat : MPEG-4\r\nFormat profile : Base Media / Version 2\r\nCodec ID : mp42 (mp42/isom/avc1)\r\nFile size : 326 MiB\r\nDuration : 41 min 34 s\r\nOverall bit rate mode : Variable\r\nOverall bit rate : 1 095 kb/s\r\n\r\nVideo\r\nID : 2\r\nFormat : AVC\r\nFormat/Info : Advanced Video Codec\r\nFormat profile :   \r\nFormat settings, CABAC : Yes\r\nFormat settings, ReFrames : 3 frames\r\nCodec ID : avc1\r\nCodec ID/Info : Advanced Video Coding\r\nDuration : 41 min 34 s\r\nBit rate mode : Variable\r\nBit rate : 964 kb/s\r\nMaximum bit rate : 1 000 kb/s\r\nWidth : 720 pixels\r\nHeight : 404 pixels\r\nDisplay aspect ratio : 16:9\r\nOriginal display aspect ratio : 16:9\r\nFrame rate mode : Constant\r\nFrame rate : 25.000 FPS\r\nStandard : PAL\r\nColor space : YUV\r\nChroma subsampling : 4:2:0\r\nBit depth : 8 bits\r\nScan type : Progressive\r\nBits/(Pixel*Frame) : 0.132\r\nStream size : 287 MiB (88%)\r\nWriting library : x264 core 112\r\nColor range : Limited\r\nColor primaries : BT.601 PAL\r\nTransfer characteristics : BT.470 System B, BT.470 System G\r\nMatrix coefficients : BT.601\r\n\r\nAudio\r\nID : 1\r\nFormat : AAC\r\nFormat/Info : Advanced Audio Codec\r\nFormat profile : LC\r\nCodec ID : 40\r\nDuration : 41 min 34 s\r\nBit rate mode : Variable\r\nBit rate : 128 kb/s\r\nMaximum bit rate : 576 kb/s\r\nChannel(s) : 2 channels\r\nChannel positions : Front: L R\r\nSampling rate : 48.0 kHz\r\nFrame rate : 46.875 FPS (1024 spf)\r\nCompression mode : Lossy\r\nStream size : 38.1 MiB (12%)","torrent":{"xt":"urn:btih:a9da0b14ffe2e2400641f5a93c0a5c8b638ac040","amp;dn":"48+Hours+-+Death+On+The+Hudson","amp;tr":["udp%3A%2F%2Ftracker.leechers-paradise.org%3A6969","udp%3A%2F%2Fzer0day.ch%3A1337","udp%3A%2F%2Fopen.demonii.com%3A1337","udp%3A%2F%2Ftracker.coppersurfer.tk%3A6969","udp%3A%2F%2Fexodus.desync.com%3A6969"],"infoHash":"a9da0b14ffe2e2400641f5a93c0a5c8b638ac040","infoHashBuffer":{"type":"Buffer","data":[169,218,11,20,255,226,226,64,6,65,245,169,60,10,92,139,99,138,192,64]},"announce":[],"urlList":[]}}